<svg width="110" height="36" viewBox="0 0 110 36" fill="none" xmlns="http://www.w3.org/2000/svg">
<g clip-path="url(#clip0_2_14)">
<path d="M92.6334 18.5128C92.3694 16.8583 90.2753 16.7607 88.8896 16.6959C88.8896 16.6959 83.1707 16.5493 82.567 16.5244C82.0362 16.5026 81.4191 16.4056 81.3584 15.8452C81.2952 15.2586 81.8545 14.9864 82.363 14.8847C83.379 14.6813 84.3942 14.6646 85.4013 14.6646C87.6157 14.6646 89.6526 14.8941 91.803 15.2659L92.0365 13.6343L92.0383 13.6225C90.4162 13.3373 88.1721 13 85.7757 13C84.6547 13 83.6 13.0604 82.6416 13.1795C81.5096 13.3202 80.27 13.5658 79.6614 14.3196C79.1448 14.9595 79.0919 16.0412 79.4049 16.7788C79.9428 18.0474 81.8485 18.096 83.0362 18.147C83.0362 18.147 88.7892 18.3024 89.3992 18.3283C89.9301 18.3507 90.5472 18.4507 90.6075 19.0283C90.6614 19.5438 90.2984 19.9176 89.5475 20.0653C88.566 20.2586 87.5305 20.2848 86.5241 20.2848C84.078 20.2848 81.918 20.0428 79.434 19.6787L79.2317 21.3268C80.8701 21.6359 83.3868 22 86.1501 22L86.1845 22C87.2391 22 88.303 21.9993 89.3492 21.857C90.2718 21.7312 91.2391 21.5406 91.9662 20.9432C92.6816 20.3552 92.7658 19.3397 92.6337 18.5132L92.6334 18.5128Z" fill="#E1F2EC"/>
<path d="M25.4639 19.7834L19.7442 13.0607L17.3148 13.0607L17.3148 21.9429L19.4632 21.9429L19.4632 15.7851L24.224 21.3812C24.8971 22.1722 26.0281 22.1752 26.7034 21.3812L31.4642 15.7851L31.4642 21.9429L33.6122 21.9429L33.6122 13.0607L31.1828 13.0607L25.4639 19.7834Z" fill="#E1F2EC"/>
<path d="M51.5852 13.0607L39.0923 13.0607L39.0923 21.9429L51.6898 21.9429L52.0057 20.1465L41.2406 20.1465L41.2406 18.4001L51.1586 18.4001L51.1586 16.6036L41.2406 16.6036L41.2406 14.8572L51.5852 14.8572L51.5852 13.0607Z" fill="#E1F2EC"/>
<path d="M72.3154 21.9403L76.2341 13.0607L74.0166 13.0607L71.0173 19.8576L67.4822 13.8692C67.1646 13.3467 66.5759 13.0245 65.9385 13.0245C65.3012 13.0245 64.7125 13.3467 64.3949 13.8692L60.8598 19.8576L57.8601 13.0607L55.6426 13.0607L59.561 21.9403L61.841 21.9403L65.9382 14.9344L70.0354 21.9403L72.3154 21.9403Z" fill="#E1F2EC"/>
</g>
<rect x="0.5" y="0.5" width="109" height="35" rx="17.5" stroke="#E1F2EC"/>
<defs>
<clipPath id="clip0_2_14">
<rect width="75.3704" height="9" fill="white" transform="translate(17.3148 13)"/>
</clipPath>
</defs>
</svg>
