<svg width="138" height="112" viewBox="0 0 138 112" fill="none" xmlns="http://www.w3.org/2000/svg">
<path d="M13 21.9206C13 17.4102 16.6563 13.7539 21.1667 13.7539H116.833C121.344 13.7539 125 17.4102 125 21.9206V89.5872C125 94.0976 121.344 97.7539 116.833 97.7539H21.1667C16.6563 97.7539 13 94.0976 13 89.5872V21.9206ZM21.1667 20.7539C20.5223 20.7539 20 21.2762 20 21.9206V89.5872C20 90.2316 20.5223 90.7539 21.1667 90.7539H116.833C117.478 90.7539 118 90.2316 118 89.5872V21.9206C118 21.2762 117.478 20.7539 116.833 20.7539H21.1667Z" fill="white"/>
<path d="M91.3654 31.326C89.9819 32.676 89.9548 34.8919 91.3047 36.2754C96.4521 41.5506 99.3333 48.629 99.3333 55.9994C99.3333 63.3698 96.4521 70.4483 91.3047 75.7235C89.9548 77.107 89.9819 79.3229 91.3654 80.6728C92.7489 82.0228 94.9648 81.9956 96.3148 80.6121C102.738 74.0295 106.333 65.1966 106.333 55.9994C106.333 46.8022 102.738 37.9694 96.3148 31.3867C94.9648 30.0032 92.7489 29.976 91.3654 31.326Z" fill="white"/>
<path d="M82.9727 70.7754C83.8648 70.7544 84.7491 70.3943 85.4158 69.6994C88.951 66.0146 90.925 61.1058 90.9249 55.9994C90.9249 50.893 88.951 45.9842 85.4158 42.2994C84.7126 41.5664 83.7671 41.2059 82.8257 41.223C81.9754 41.2383 81.1283 41.5616 80.4662 42.1969C79.0713 43.5351 79.0254 45.7507 80.3637 47.1455C82.6484 49.5269 83.9241 52.6993 83.9241 55.9994C83.9241 59.2996 82.6484 62.4719 80.3637 64.8533C79.0254 66.2482 79.0713 68.4638 80.4662 69.802C81.1665 70.4738 82.0736 70.7968 82.9727 70.7754Z" fill="white"/>
<path d="M72.9883 52.2626C70.858 52.2626 69.1311 53.9896 69.1311 56.1199C69.1311 58.2502 70.858 59.9771 72.9883 59.9771C75.1186 59.9771 76.8456 58.2502 76.8456 56.1199C76.8456 53.9896 75.1186 52.2626 72.9883 52.2626Z" fill="white"/>
<path d="M4 10L134 102" stroke="white" stroke-width="8" stroke-linecap="round"/>
</svg>
